<!DOCTYPE svg PUBLIC "-//W3C//DTD SVG 1.1//EN" "http://www.w3.org/Graphics/SVG/1.1/DTD/svg11.dtd">
<!-- Uploaded to: SVG Repo, www.svgrepo.com, Transformed by: SVG Repo Mixer Tools -->
<svg width="800px" height="800px" viewBox="0 0 48 48" xmlns="http://www.w3.org/2000/svg" fill="#011828">
<g id="SVGRepo_bgCarrier" stroke-width="0"/>
<g id="SVGRepo_tracerCarrier" stroke-linecap="round" stroke-linejoin="round"/>
<g id="SVGRepo_iconCarrier"> <title>accessibility-circle</title> <g id="Layer_2" data-name="Layer 2"> <g id="invisible_box" data-name="invisible box"> <rect width="48" height="48" fill="none"/> </g> <g id="Layer_6" data-name="Layer 6"> <g> <path d="M24,2A22,22,0,1,0,46,24,21.9,21.9,0,0,0,24,2Zm0,40A18,18,0,1,1,42,24,18.1,18.1,0,0,1,24,42Z"/> <circle cx="24" cy="13" r="3"/> <path d="M35,17H13a2,2,0,0,0,0,4h7v4.8l-2,9.8A2.1,2.1,0,0,0,19.6,38H20a2.1,2.1,0,0,0,2-1.6L23.8,27h.4L26,36.4A2.1,2.1,0,0,0,28,38h.4A2.1,2.1,0,0,0,30,35.6l-2-9.8V21h7a2,2,0,0,0,0-4Z"/> </g> </g> </g> </g>
</svg>