<!DOCTYPE svg PUBLIC "-//W3C//DTD SVG 1.1//EN" "http://www.w3.org/Graphics/SVG/1.1/DTD/svg11.dtd">
<!-- Uploaded to: SVG Repo, www.svgrepo.com, Transformed by: SVG Repo Mixer Tools -->
<svg version="1.1" id="Layer_1" xmlns:sketch="http://www.bohemiancoding.com/sketch/ns" xmlns="http://www.w3.org/2000/svg" xmlns:xlink="http://www.w3.org/1999/xlink" width="800px" height="800px" viewBox="0 0 54 64" enable-background="new 0 0 54 64" xml:space="preserve" fill="#000000">
<g id="SVGRepo_bgCarrier" stroke-width="0"/>
<g id="SVGRepo_tracerCarrier" stroke-linecap="round" stroke-linejoin="round"/>
<g id="SVGRepo_iconCarrier"> <title>Contact-book-2</title> <desc>Created with Sketch.</desc> <g id="Page-1" sketch:type="MSPage"> <g id="Contact-book-2" transform="translate(1.000000, 1.000000)" sketch:type="MSLayerGroup"> <path id="Shape_1_" sketch:type="MSShapeGroup" fill="none" stroke="#000000" stroke-width="2" d="M47,7h3c1.1,0,2,0.9,2,2v8 c0,1.1-0.9,2-2,2h-3"/> <path id="Shape_2_" sketch:type="MSShapeGroup" fill="none" stroke="#000000" stroke-width="2" d="M47,24h3c1.1,0,2,0.9,2,2v8 c0,1.1-0.9,2-2,2h-3"/> <path id="Shape_3_" sketch:type="MSShapeGroup" fill="none" stroke="#000000" stroke-width="2" d="M47,41h3c1.1,0,2,0.9,2,2v8 c0,1.1-0.9,2-2,2h-3"/> <path id="Shape" sketch:type="MSShapeGroup" fill="none" stroke="#000000" stroke-width="2" d="M0,2c0-1.1,0.9-2,2-2h44 c1.1,0,2,0.9,2,2v58c0,1.1-0.9,2-2,2H2c-1.1,0-2-0.9-2-2V2L0,2z"/> <path id="Shape_4_" sketch:type="MSShapeGroup" fill="none" stroke="#000000" stroke-width="2" d="M6,3v56"/> <path id="Shape_5_" sketch:type="MSShapeGroup" fill="none" stroke="#000000" stroke-width="2" d="M20.8,38 c1.3-0.6,3.1-1.7,3.1-2.7c0-0.5-0.2-0.9-0.4-1c-2.5-1.4-2.9-5.8-3.1-5.8c-0.8,0-1.4-2.1-1.4-3.4c0-1.1,0.3-1.1,0.9-1.4v-0.2 c0-3.6,2.3-6.5,6-6.5s6.3,3,6.3,6.6v0.2c0.6,0.3,0.8,0.5,0.8,1.6c0,1.4-0.5,3.3-1.3,3.3c-0.2,0-0.8,4.3-3.2,5.7 c-0.2,0.1-0.4,0.3-0.4,0.8c0,1.2,1.9,2.2,3.2,2.8c1.6,0.8,8.7,1.5,8.7,9H11.9C11.9,39.5,18.8,39,20.8,38L20.8,38z"/> </g> </g> </g>
</svg>