<!DOCTYPE svg PUBLIC "-//W3C//DTD SVG 1.1//EN" "http://www.w3.org/Graphics/SVG/1.1/DTD/svg11.dtd">
<!-- Uploaded to: SVG Repo, www.svgrepo.com, Transformed by: SVG Repo Mixer Tools -->
<svg fill="#000000" width="800px" height="800px" viewBox="0 0 32 32" version="1.1" xmlns="http://www.w3.org/2000/svg">
<g id="SVGRepo_bgCarrier" stroke-width="0"/>
<g id="SVGRepo_tracerCarrier" stroke-linecap="round" stroke-linejoin="round"/>
<g id="SVGRepo_iconCarrier"> <title>apps</title> <path d="M12 1.25h-8c-1.518 0.002-2.748 1.232-2.75 2.75v8c0.002 1.518 1.232 2.748 2.75 2.75h8c1.518-0.002 2.748-1.232 2.75-2.75v-8c-0.002-1.518-1.232-2.748-2.75-2.75h-0zM13.25 12c-0.001 0.69-0.56 1.249-1.25 1.25h-8c-0.69-0.001-1.249-0.56-1.25-1.25v-8c0.001-0.69 0.56-1.249 1.25-1.25h8c0.69 0.001 1.249 0.56 1.25 1.25v0zM12 17.25h-8c-1.518 0.002-2.748 1.232-2.75 2.75v8c0.002 1.518 1.232 2.748 2.75 2.75h8c1.518-0.002 2.748-1.232 2.75-2.75v-8c-0.002-1.518-1.232-2.748-2.75-2.75h-0zM13.25 28c-0.001 0.69-0.56 1.249-1.25 1.25h-8c-0.69-0.001-1.249-0.56-1.25-1.25v-8c0.001-0.69 0.56-1.249 1.25-1.25h8c0.69 0.001 1.249 0.56 1.25 1.25v0zM28 1.25h-8c-1.518 0.002-2.748 1.232-2.75 2.75v8c0.002 1.518 1.232 2.748 2.75 2.75h8c1.518-0.002 2.748-1.232 2.75-2.75v-8c-0.002-1.518-1.232-2.748-2.75-2.75h-0zM29.25 12c-0.001 0.69-0.56 1.249-1.25 1.25h-8c-0.69-0.001-1.249-0.56-1.25-1.25v-8c0.001-0.69 0.56-1.249 1.25-1.25h8c0.69 0.001 1.249 0.56 1.25 1.25v0zM28 17.25h-8c-1.518 0.002-2.748 1.232-2.75 2.75v8c0.002 1.518 1.232 2.748 2.75 2.75h8c1.518-0.002 2.748-1.232 2.75-2.75v-8c-0.002-1.518-1.232-2.748-2.75-2.75h-0zM29.25 28c-0.001 0.69-0.56 1.249-1.25 1.25h-8c-0.69-0.001-1.249-0.56-1.25-1.25v-8c0.001-0.69 0.56-1.249 1.25-1.25h8c0.69 0.001 1.249 0.56 1.25 1.25v0z"/> </g>
</svg>